{
  "accessors": [
    {
      "bufferView": 2,
      "componentType": 5126,
      "count": 65532,
      "max": [
        50.0,
        50.0,
        50.0
      ],
      "min": [
        -50.0,
        -50.0,
        -50.0
      ],
      "type": "VEC3"
    },
    {
      "bufferView": 2,
      "byteOffset": 786384,
      "componentType": 5126,
      "count": 65532,
      "max": [
        1.0,
        1.0,
        1.0
      ],
      "min": [
        -1.0,
        -1.0,
        -1.0
      ],
      "type": "VEC3"
    },
    {
      "bufferView": 3,
      "componentType": 5126,
      "count": 65532,
      "max": [
        0.9999982118606567,
        1.0,
        1.0,
        1.0
      ],
      "min": [
        -1.0,
        -0.8443149328231812,
        -1.0,
        1.0
      ],
      "type": "VEC4"
    },
    {
      "bufferView": 1,
      "componentType": 5126,
      "count": 65532,
      "max": [
        0.9894324541091919,
        0.9930354356765747
      ],
      "min": [
        0.00016063451766967773,
        0.010586738586425781
      ],
      "type": "VEC2"
    },
    {
      "bufferView": 1,
      "byteOffset": 524256,
      "componentType": 5126,
      "count": 65532,
      "max": [
        0.9894324541091919,
        0.9930354356765747
      ],
      "min": [
        0.00016063451766967773,
        0.010586738586425781
      ],
      "type": "VEC2"
    },
    {
      "bufferView": 1,
      "byteOffset": 1048512,
      "componentType": 5126,
      "count": 65532,
      "max": [
        0.9894324541091919,
        0.9930354356765747
      ],
      "min": [
        0.00016063451766967773,
        0.010586738586425781
      ],
      "type": "VEC2"
    },
    {
      "bufferView": 1,
      "byteOffset": 1572768,
      "componentType": 5126,
      "count": 65532,
      "max": [
        0.9894324541091919,
        0.9930354356765747
      ],
      "min": [
        0.00016063451766967773,
        0.010586738586425781
      ],
      "type": "VEC2"
    },
    {
      "bufferView": 1,
      "byteOffset": 2097024,
      "componentType": 5126,
      "count": 65532,
      "max": [
        0.9894324541091919,
        0.9930354356765747
      ],
      "min": [
        0.00016063451766967773,
        0.010586738586425781
      ],
      "type": "VEC2"
    },
    {
      "bufferView": 1,
      "byteOffset": 2621280,
      "componentType": 5126,
      "count": 65532,
      "max": [
        0.9894324541091919,
        0.9930354356765747
      ],
      "min": [
        0.00016063451766967773,
        0.010586738586425781
      ],
      "type": "VEC2"
    },
    {
      "bufferView": 1,
      "byteOffset": 3145536,
      "componentType": 5126,
      "count": 65532,
      "max": [
        0.9894324541091919,
        0.9930354356765747
      ],
      "min": [
        0.00016063451766967773,
        0.010586738586425781
      ],
      "type": "VEC2"
    },
    {
      "bufferView": 1,
      "byteOffset": 3669792,
      "componentType": 5126,
      "count": 65532,
      "max": [
        0.9894324541091919,
        0.9930354356765747
      ],
      "min": [
        0.00016063451766967773,
        0.010586738586425781
      ],
      "type": "VEC2"
    },
    {
      "bufferView": 1,
      "byteOffset": 4194048,
      "componentType": 5126,
      "count": 65532,
      "max": [
        0.9894324541091919,
        0.9930354356765747
      ],
      "min": [
        0.00016063451766967773,
        0.010586738586425781
      ],
      "type": "VEC2"
    },
    {
      "bufferView": 1,
      "byteOffset": 4718304,
      "componentType": 5126,
      "count": 65532,
      "max": [
        0.9894324541091919,
        0.9930354356765747
      ],
      "min": [
        0.00016063451766967773,
        0.010586738586425781
      ],
      "type": "VEC2"
    },
    {
      "bufferView": 0,
      "componentType": 5125,
      "count": 359280,
      "type": "SCALAR"
    },
    {
      "bufferView": 2,
      "byteOffset": 1572768,
      "componentType": 5126,
      "count": 37571,
      "max": [
        50.0,
        50.0,
        50.0
      ],
      "min": [
        -50.0,
        -50.0,
        -50.0
      ],
      "type": "VEC3"
    },
    {
      "bufferView": 2,
      "byteOffset": 2023620,
      "componentType": 5126,
      "count": 37571,
      "max": [
        1.0,
        1.0,
        1.0
      ],
      "min": [
        -1.0,
        -1.0,
        -1.0
      ],
      "type": "VEC3"
    },
    {
      "bufferView": 3,
      "byteOffset": 1048512,
      "componentType": 5126,
      "count": 37571,
      "max": [
        1.0,
        1.0,
        1.0,
        1.0
      ],
      "min": [
        -1.0,
        -0.8399551510810852,
        -1.0,
        1.0
      ],
      "type": "VEC4"
    },
    {
      "bufferView": 1,
      "byteOffset": 5242560,
      "componentType": 5126,
      "count": 37571,
      "max": [
        0.983539342880249,
        0.9930354356765747
      ],
      "min": [
        0.015111863613128662,
        0.016837596893310547
      ],
      "type": "VEC2"
    },
    {
      "bufferView": 1,
      "byteOffset": 5543128,
      "componentType": 5126,
      "count": 37571,
      "max": [
        0.983539342880249,
        0.9930354356765747
      ],
      "min": [
        0.015111863613128662,
        0.016837596893310547
      ],
      "type": "VEC2"
    },
    {
      "bufferView": 1,
      "byteOffset": 5843696,
      "componentType": 5126,
      "count": 37571,
      "max": [
        0.983539342880249,
        0.9930354356765747
      ],
      "min": [
        0.015111863613128662,
        0.016837596893310547
      ],
      "type": "VEC2"
    },
    {
      "bufferView": 1,
      "byteOffset": 6144264,
      "componentType": 5126,
      "count": 37571,
      "max": [
        0.983539342880249,
        0.9930354356765747
      ],
      "min": [
        0.015111863613128662,
        0.016837596893310547
      ],
      "type": "VEC2"
    },
    {
      "bufferView": 1,
      "byteOffset": 6444832,
      "componentType": 5126,
      "count": 37571,
      "max": [
        0.983539342880249,
        0.9930354356765747
      ],
      "min": [
        0.015111863613128662,
        0.016837596893310547
      ],
      "type": "VEC2"
    },
    {
      "bufferView": 1,
      "byteOffset": 6745400,
      "componentType": 5126,
      "count": 37571,
      "max": [
        0.983539342880249,
        0.9930354356765747
      ],
      "min": [
        0.015111863613128662,
        0.016837596893310547
      ],
      "type": "VEC2"
    },
    {
      "bufferView": 1,
      "byteOffset": 7045968,
      "componentType": 5126,
      "count": 37571,
      "max": [
        0.983539342880249,
        0.9930354356765747
      ],
      "min": [
        0.015111863613128662,
        0.016837596893310547
      ],
      "type": "VEC2"
    },
    {
      "bufferView": 1,
      "byteOffset": 7346536,
      "componentType": 5126,
      "count": 37571,
      "max": [
        0.983539342880249,
        0.9930354356765747
      ],
      "min": [
        0.015111863613128662,
        0.016837596893310547
      ],
      "type": "VEC2"
    },
    {
      "bufferView": 1,
      "byteOffset": 7647104,
      "componentType": 5126,
      "count": 37571,
      "max": [
        0.983539342880249,
        0.9930354356765747
      ],
      "min": [
        0.015111863613128662,
        0.016837596893310547
      ],
      "type": "VEC2"
    },
    {
      "bufferView": 1,
      "byteOffset": 7947672,
      "componentType": 5126,
      "count": 37571,
      "max": [
        0.983539342880249,
        0.9930354356765747
      ],
      "min": [
        0.015111863613128662,
        0.016837596893310547
      ],
      "type": "VEC2"
    },
    {
      "bufferView": 0,
      "byteOffset": 1437120,
      "componentType": 5125,
      "count": 163344,
      "type": "SCALAR"
    }
  ],
  "asset": {
    "extras": {
      "author": "SarahC (https://sketchfab.com/SarahC)",
      "license": "CC-BY-4.0 (http://creativecommons.org/licenses/by/4.0/)",
      "source": "https://sketchfab.com/3d-models/old-worn-red-metal-box-6d0b2c0e684c48959baf037758927cf0",
      "title": "Old worn red metal box."
    },
    "generator": "Sketchfab-12.68.0",
    "version": "2.0"
  },
  "bufferViews": [
    {
      "buffer": 0,
      "byteLength": 2090496,
      "name": "floatBufferViews",
      "target": 34963
    },
    {
      "buffer": 0,
      "byteLength": 8248240,
      "byteOffset": 2090496,
      "byteStride": 8,
      "name": "floatBufferViews",
      "target": 34962
    },
    {
      "buffer": 0,
      "byteLength": 2474472,
      "byteOffset": 10338736,
      "byteStride": 12,
      "name": "floatBufferViews",
      "target": 34962
    },
    {
      "buffer": 0,
      "byteLength": 1649648,
      "byteOffset": 12813208,
      "byteStride": 16,
      "name": "floatBufferViews",
      "target": 34962
    }
  ],
  "buffers": [
    {
      "byteLength": 14462856,
      "uri": "metal_box.bin"
    }
  ],
  "images": [
    {
      "uri": "textures/DefaultMaterial_baseColor.png"
    },
    {
      "uri": "textures/DefaultMaterial_metallicRoughness.png"
    },
    {
      "uri": "textures/DefaultMaterial_normal.png"
    }
  ],
  "materials": [
    {
      "doubleSided": true,
      "name": "DefaultMaterial",
      "normalTexture": {
        "index": 2
      },
      "pbrMetallicRoughness": {
        "baseColorTexture": {
          "index": 0
        },
        "metallicRoughnessTexture": {
          "index": 1
        },
        "roughnessFactor": 0.6887696161586683
      }
    }
  ],
  "meshes": [
    {
      "name": "defaultobject_DefaultMaterial_0",
      "primitives": [
        {
          "attributes": {
            "NORMAL": 1,
            "POSITION": 0,
            "TANGENT": 2,
            "TEXCOORD_0": 3,
            "TEXCOORD_1": 4,
            "TEXCOORD_2": 5,
            "TEXCOORD_3": 6,
            "TEXCOORD_4": 7,
            "TEXCOORD_5": 8,
            "TEXCOORD_6": 9,
            "TEXCOORD_7": 10,
            "TEXCOORD_8": 11,
            "TEXCOORD_9": 12
          },
          "indices": 13,
          "material": 0,
          "mode": 4
        }
      ]
    },
    {
      "name": "defaultobject_DefaultMaterial_0",
      "primitives": [
        {
          "attributes": {
            "NORMAL": 15,
            "POSITION": 14,
            "TANGENT": 16,
            "TEXCOORD_0": 17,
            "TEXCOORD_1": 18,
            "TEXCOORD_2": 19,
            "TEXCOORD_3": 20,
            "TEXCOORD_4": 21,
            "TEXCOORD_5": 22,
            "TEXCOORD_6": 23,
            "TEXCOORD_7": 24,
            "TEXCOORD_8": 25,
            "TEXCOORD_9": 26
          },
          "indices": 27,
          "material": 0,
          "mode": 4
        }
      ]
    }
  ],
  "nodes": [
    {
      "children": [
        1
      ],
      "matrix": [
        1.0,
        0.0,
        0.0,
        0.0,
        0.0,
        2.220446049250313e-16,
        -1.0,
        0.0,
        0.0,
        1.0,
        2.220446049250313e-16,
        0.0,
        0.0,
        0.0,
        0.0,
        1.0
      ],
      "name": "Sketchfab_model"
    },
    {
      "children": [
        2
      ],
      "matrix": [
        0.009999999776482582,
        0.0,
        0.0,
        0.0,
        0.0,
        0.0,
        0.009999999776482582,
        0.0,
        0.0,
        -0.009999999776482582,
        0.0,
        0.0,
        0.0,
        0.0,
        0.0,
        1.0
      ],
      "name": "box.fbx"
    },
    {
      "children": [
        3
      ],
      "name": "RootNode"
    },
    {
      "children": [
        4,
        5
      ],
      "name": "defaultobject"
    },
    {
      "mesh": 0,
      "name": "defaultobject_DefaultMaterial_0"
    },
    {
      "mesh": 1,
      "name": "defaultobject_DefaultMaterial_0"
    }
  ],
  "samplers": [
    {
      "magFilter": 9729,
      "minFilter": 9987,
      "wrapS": 10497,
      "wrapT": 10497
    }
  ],
  "scene": 0,
  "scenes": [
    {
      "name": "Sketchfab_Scene",
      "nodes": [
        0
      ]
    }
  ],
  "textures": [
    {
      "sampler": 0,
      "source": 0
    },
    {
      "sampler": 0,
      "source": 1
    },
    {
      "sampler": 0,
      "source": 2
    }
  ]
}
