{
  "accessors": [
    {
      "bufferView": 1,
      "componentType": 5126,
      "count": 4265,
      "max": [
        25.311119079589844,
        12.841099739074707,
        27.655189514160156
      ],
      "min": [
        -27.68670082092285,
        -13.56116008758545,
        -25.616849899291992
      ],
      "type": "VEC3"
    },
    {
      "bufferView": 1,
      "byteOffset": 51180,
      "componentType": 5126,
      "count": 4265,
      "max": [
        0.9999925494194031,
        1.0,
        0.999934732913971
      ],
      "min": [
        -0.9998934864997864,
        -1.0,
        -0.9998087286949158
      ],
      "type": "VEC3"
    },
    {
      "bufferView": 0,
      "componentType": 5125,
      "count": 20226,
      "type": "SCALAR"
    }
  ],
  "asset": {
    "extras": {
      "author": "AnirudhRao (https://sketchfab.com/AnirudhRao)",
      "license": "CC-BY-4.0 (http://creativecommons.org/licenses/by/4.0/)",
      "source": "https://sketchfab.com/3d-models/submarine-propeller-a7add945d5194d87bfb17b8f9649614e",
      "title": "Submarine Propeller"
    },
    "generator": "Sketchfab-12.68.0",
    "version": "2.0"
  },
  "bufferViews": [
    {
      "buffer": 0,
      "byteLength": 80904,
      "name": "floatBufferViews",
      "target": 34963
    },
    {
      "buffer": 0,
      "byteLength": 102360,
      "byteOffset": 80904,
      "byteStride": 12,
      "name": "floatBufferViews",
      "target": 34962
    }
  ],
  "buffers": [
    {
      "byteLength": 183264,
      "uri": "propeller.bin"
    }
  ],
  "materials": [
    {
      "doubleSided": true,
      "name": "Scene_-_Root",
      "pbrMetallicRoughness": {
        "baseColorFactor": [
          0.6281055094861525,
          0.3773084216359412,
          0.042133639760334525,
          1.0
        ],
        "metallicFactor": 0.9468368902439024,
        "roughnessFactor": 0.6
      }
    }
  ],
  "meshes": [
    {
      "name": "Object_0",
      "primitives": [
        {
          "attributes": {
            "NORMAL": 1,
            "POSITION": 0
          },
          "indices": 2,
          "material": 0,
          "mode": 4
        }
      ]
    }
  ],
  "nodes": [
    {
      "children": [
        1
      ],
      "matrix": [
        1.0,
        0.0,
        0.0,
        0.0,
        0.0,
        2.220446049250313e-16,
        -1.0,
        0.0,
        0.0,
        1.0,
        2.220446049250313e-16,
        0.0,
        0.0,
        0.0,
        0.0,
        1.0
      ],
      "name": "Sketchfab_model"
    },
    {
      "children": [
        2
      ],
      "name": "submarine propeller.stl.cleaner.materialmerger.gles"
    },
    {
      "mesh": 0,
      "name": "Object_2"
    }
  ],
  "scene": 0,
  "scenes": [
    {
      "name": "Sketchfab_Scene",
      "nodes": [
        0
      ]
    }
  ]
}
